# xmcd
#
# Track frame offsets:
#	150
#	22322
#	37704
#	57308
#	73667
#	89350
#	110063
#	136183
#	152896
#	174689
#	202503
#
# Disc length: 2795 seconds
#
# Revision: 1
# Processed by: cddbd v1.5PL3 Copyright (c) Steve Scherf et al.
# Submitted via: audiograbber 1.83.01
#
DISCID=920ae90b
DTITLE=PatMan - PatMan 97
DYEAR=1997
DGENRE=
TTITLE0=DinOsAUres
TTITLE1=GErOnimO
TTITLE2=J'ai Mal au cul
TTITLE3=SeXueLLemeNt
TTITLE4=Cyber PITbuLL
TTITLE5=Ca le fait
TTITLE6=VOilA !
TTITLE7=Un par Un
TTITLE8=MaTelas
TTITLE9=EthnO
TTITLE10=La VEritE
EXTD=
EXTT0=
EXTT1=
EXTT2=
EXTT3=
EXTT4=
EXTT5=
EXTT6=
EXTT7=
EXTT8=
EXTT9=
EXTT10=
PLAYORDER=
